<mxfile host="65bd71144e">
    <diagram id="C5RBs43oDa-KdzZeNtuy" name="Page-1">
        <mxGraphModel dx="525" dy="362" grid="1" gridSize="10" guides="1" tooltips="1" connect="1" arrows="1" fold="1" page="1" pageScale="1" pageWidth="827" pageHeight="1169" math="0" shadow="0">
            <root>
                <mxCell id="WIyWlLk6GJQsqaUBKTNV-0"/>
                <mxCell id="WIyWlLk6GJQsqaUBKTNV-1" parent="WIyWlLk6GJQsqaUBKTNV-0"/>
                <mxCell id="WIyWlLk6GJQsqaUBKTNV-11" value="게임종료" style="rounded=1;whiteSpace=wrap;html=1;fontSize=12;glass=0;strokeWidth=1;shadow=0;" parent="WIyWlLk6GJQsqaUBKTNV-1" vertex="1">
                    <mxGeometry x="260" y="1430" width="120" height="40" as="geometry"/>
                </mxCell>
                <mxCell id="ck-GFEVjmnhh8C61xfXQ-17" value="yes" style="edgeStyle=orthogonalEdgeStyle;rounded=0;orthogonalLoop=1;jettySize=auto;html=1;exitX=0.5;exitY=1;exitDx=0;exitDy=0;entryX=0.5;entryY=0;entryDx=0;entryDy=0;fontSize=12;startArrow=none;" parent="WIyWlLk6GJQsqaUBKTNV-1" target="WIyWlLk6GJQsqaUBKTNV-11" edge="1">
                    <mxGeometry x="-0.4737" y="20" relative="1" as="geometry">
                        <mxPoint x="320" y="1145" as="sourcePoint"/>
                        <Array as="points">
                            <mxPoint x="320" y="1195"/>
                            <mxPoint x="320" y="1195"/>
                        </Array>
                        <mxPoint as="offset"/>
                    </mxGeometry>
                </mxCell>
                <mxCell id="ck-GFEVjmnhh8C61xfXQ-68" style="edgeStyle=orthogonalEdgeStyle;rounded=0;orthogonalLoop=1;jettySize=auto;html=1;exitX=0.5;exitY=1;exitDx=0;exitDy=0;entryX=0.5;entryY=0;entryDx=0;entryDy=0;fontSize=20;" parent="WIyWlLk6GJQsqaUBKTNV-1" source="ck-GFEVjmnhh8C61xfXQ-21" target="ck-GFEVjmnhh8C61xfXQ-67" edge="1">
                    <mxGeometry relative="1" as="geometry"/>
                </mxCell>
                <mxCell id="ck-GFEVjmnhh8C61xfXQ-21" value="적 생성" style="rounded=0;whiteSpace=wrap;html=1;fontSize=30;" parent="WIyWlLk6GJQsqaUBKTNV-1" vertex="1">
                    <mxGeometry x="240" y="300" width="160" height="80" as="geometry"/>
                </mxCell>
                <mxCell id="ck-GFEVjmnhh8C61xfXQ-101" value="no" style="edgeStyle=orthogonalEdgeStyle;rounded=0;orthogonalLoop=1;jettySize=auto;html=1;exitX=0;exitY=0.5;exitDx=0;exitDy=0;fontSize=12;entryX=-0.018;entryY=0.351;entryDx=0;entryDy=0;entryPerimeter=0;" parent="WIyWlLk6GJQsqaUBKTNV-1" source="ck-GFEVjmnhh8C61xfXQ-25" target="ck-GFEVjmnhh8C61xfXQ-21" edge="1">
                    <mxGeometry x="-0.907" y="-20" relative="1" as="geometry">
                        <mxPoint x="230" y="440" as="targetPoint"/>
                        <Array as="points">
                            <mxPoint x="130" y="1100"/>
                            <mxPoint x="130" y="328"/>
                        </Array>
                        <mxPoint as="offset"/>
                    </mxGeometry>
                </mxCell>
                <mxCell id="ck-GFEVjmnhh8C61xfXQ-25" value="&lt;font style=&quot;font-size: 20px;&quot;&gt;플레이어 hp = 0&lt;/font&gt;" style="rhombus;whiteSpace=wrap;html=1;fontSize=30;" parent="WIyWlLk6GJQsqaUBKTNV-1" vertex="1">
                    <mxGeometry x="220" y="1035" width="200" height="130" as="geometry"/>
                </mxCell>
                <mxCell id="ck-GFEVjmnhh8C61xfXQ-120" style="edgeStyle=orthogonalEdgeStyle;rounded=0;orthogonalLoop=1;jettySize=auto;html=1;exitX=0.5;exitY=1;exitDx=0;exitDy=0;entryX=0.5;entryY=0;entryDx=0;entryDy=0;fontSize=12;" parent="WIyWlLk6GJQsqaUBKTNV-1" source="ck-GFEVjmnhh8C61xfXQ-67" target="ck-GFEVjmnhh8C61xfXQ-135" edge="1">
                    <mxGeometry relative="1" as="geometry"/>
                </mxCell>
                <mxCell id="ck-GFEVjmnhh8C61xfXQ-67" value="&lt;font style=&quot;font-size: 20px;&quot;&gt;적이 플레이어에게 이동&lt;/font&gt;" style="rounded=0;whiteSpace=wrap;html=1;fontSize=20;" parent="WIyWlLk6GJQsqaUBKTNV-1" vertex="1">
                    <mxGeometry x="185" y="440" width="270" height="105" as="geometry"/>
                </mxCell>
                <mxCell id="ck-GFEVjmnhh8C61xfXQ-91" value="no" style="edgeStyle=orthogonalEdgeStyle;rounded=0;orthogonalLoop=1;jettySize=auto;html=1;exitX=1;exitY=0.5;exitDx=0;exitDy=0;entryX=0;entryY=0.5;entryDx=0;entryDy=0;fontSize=12;" parent="WIyWlLk6GJQsqaUBKTNV-1" source="ck-GFEVjmnhh8C61xfXQ-73" target="ck-GFEVjmnhh8C61xfXQ-75" edge="1">
                    <mxGeometry x="-0.0095" y="9" relative="1" as="geometry">
                        <mxPoint x="1" as="offset"/>
                    </mxGeometry>
                </mxCell>
                <mxCell id="ck-GFEVjmnhh8C61xfXQ-121" value="yes" style="edgeStyle=orthogonalEdgeStyle;rounded=0;orthogonalLoop=1;jettySize=auto;html=1;exitX=0.5;exitY=1;exitDx=0;exitDy=0;entryX=0.5;entryY=0;entryDx=0;entryDy=0;fontSize=12;" parent="WIyWlLk6GJQsqaUBKTNV-1" source="ck-GFEVjmnhh8C61xfXQ-73" target="ck-GFEVjmnhh8C61xfXQ-102" edge="1">
                    <mxGeometry y="20" relative="1" as="geometry">
                        <mxPoint as="offset"/>
                    </mxGeometry>
                </mxCell>
                <mxCell id="ck-GFEVjmnhh8C61xfXQ-73" value="&lt;font style=&quot;font-size: 16px;&quot;&gt;적이 플레이어 에게 닿음&lt;/font&gt;" style="rhombus;whiteSpace=wrap;html=1;fontSize=20;" parent="WIyWlLk6GJQsqaUBKTNV-1" vertex="1">
                    <mxGeometry x="210" y="680" width="220" height="130" as="geometry"/>
                </mxCell>
                <mxCell id="ck-GFEVjmnhh8C61xfXQ-96" value="yes" style="edgeStyle=orthogonalEdgeStyle;rounded=0;orthogonalLoop=1;jettySize=auto;html=1;exitX=0.5;exitY=1;exitDx=0;exitDy=0;fontSize=12;" parent="WIyWlLk6GJQsqaUBKTNV-1" source="ck-GFEVjmnhh8C61xfXQ-75" target="ck-GFEVjmnhh8C61xfXQ-93" edge="1">
                    <mxGeometry x="0.0164" y="20" relative="1" as="geometry">
                        <mxPoint as="offset"/>
                    </mxGeometry>
                </mxCell>
                <mxCell id="ck-GFEVjmnhh8C61xfXQ-132" value="no" style="edgeStyle=orthogonalEdgeStyle;rounded=0;orthogonalLoop=1;jettySize=auto;html=1;exitX=1;exitY=0.5;exitDx=0;exitDy=0;entryX=0.75;entryY=1;entryDx=0;entryDy=0;fontSize=12;" parent="WIyWlLk6GJQsqaUBKTNV-1" source="ck-GFEVjmnhh8C61xfXQ-75" target="ck-GFEVjmnhh8C61xfXQ-127" edge="1">
                    <mxGeometry x="-0.7961" y="15" relative="1" as="geometry">
                        <Array as="points">
                            <mxPoint x="750" y="745"/>
                        </Array>
                        <mxPoint as="offset"/>
                    </mxGeometry>
                </mxCell>
                <mxCell id="ck-GFEVjmnhh8C61xfXQ-75" value="적이 총알에 맞음" style="rhombus;whiteSpace=wrap;html=1;fontSize=12;" parent="WIyWlLk6GJQsqaUBKTNV-1" vertex="1">
                    <mxGeometry x="535" y="685" width="170" height="120" as="geometry"/>
                </mxCell>
                <mxCell id="ck-GFEVjmnhh8C61xfXQ-89" value="no" style="edgeStyle=orthogonalEdgeStyle;rounded=0;orthogonalLoop=1;jettySize=auto;html=1;exitX=1;exitY=0.5;exitDx=0;exitDy=0;entryX=1;entryY=0.25;entryDx=0;entryDy=0;fontSize=12;" parent="WIyWlLk6GJQsqaUBKTNV-1" source="ck-GFEVjmnhh8C61xfXQ-87" target="ck-GFEVjmnhh8C61xfXQ-67" edge="1">
                    <mxGeometry x="-0.9538" y="18" relative="1" as="geometry">
                        <Array as="points">
                            <mxPoint x="810" y="1098"/>
                            <mxPoint x="810" y="466"/>
                        </Array>
                        <mxPoint as="offset"/>
                    </mxGeometry>
                </mxCell>
                <mxCell id="ck-GFEVjmnhh8C61xfXQ-98" value="yes" style="edgeStyle=orthogonalEdgeStyle;rounded=0;orthogonalLoop=1;jettySize=auto;html=1;exitX=0.5;exitY=1;exitDx=0;exitDy=0;entryX=0.5;entryY=0;entryDx=0;entryDy=0;fontSize=12;" parent="WIyWlLk6GJQsqaUBKTNV-1" source="ck-GFEVjmnhh8C61xfXQ-87" edge="1">
                    <mxGeometry x="0.0256" y="20" relative="1" as="geometry">
                        <mxPoint x="620" y="1199" as="targetPoint"/>
                        <mxPoint as="offset"/>
                    </mxGeometry>
                </mxCell>
                <mxCell id="ck-GFEVjmnhh8C61xfXQ-87" value="적 hp 0" style="rhombus;whiteSpace=wrap;html=1;fontSize=12;" parent="WIyWlLk6GJQsqaUBKTNV-1" vertex="1">
                    <mxGeometry x="520" y="1035" width="200" height="125" as="geometry"/>
                </mxCell>
                <mxCell id="ck-GFEVjmnhh8C61xfXQ-95" style="edgeStyle=orthogonalEdgeStyle;rounded=0;orthogonalLoop=1;jettySize=auto;html=1;exitX=0.5;exitY=1;exitDx=0;exitDy=0;entryX=0.5;entryY=0;entryDx=0;entryDy=0;fontSize=12;" parent="WIyWlLk6GJQsqaUBKTNV-1" source="ck-GFEVjmnhh8C61xfXQ-93" target="ck-GFEVjmnhh8C61xfXQ-87" edge="1">
                    <mxGeometry relative="1" as="geometry"/>
                </mxCell>
                <mxCell id="ck-GFEVjmnhh8C61xfXQ-93" value="총알 소멸 및 적 hp 감소 ,크기감소" style="rounded=0;whiteSpace=wrap;html=1;fontSize=12;" parent="WIyWlLk6GJQsqaUBKTNV-1" vertex="1">
                    <mxGeometry x="550" y="880" width="140" height="70" as="geometry"/>
                </mxCell>
                <mxCell id="ck-GFEVjmnhh8C61xfXQ-103" style="edgeStyle=orthogonalEdgeStyle;rounded=0;orthogonalLoop=1;jettySize=auto;html=1;exitX=0.5;exitY=1;exitDx=0;exitDy=0;entryX=0.5;entryY=0;entryDx=0;entryDy=0;fontSize=12;" parent="WIyWlLk6GJQsqaUBKTNV-1" source="ck-GFEVjmnhh8C61xfXQ-102" target="ck-GFEVjmnhh8C61xfXQ-25" edge="1">
                    <mxGeometry relative="1" as="geometry"/>
                </mxCell>
                <mxCell id="ck-GFEVjmnhh8C61xfXQ-102" value="플레이어 hp감소 및 적 소멸" style="rounded=0;whiteSpace=wrap;html=1;fontSize=12;" parent="WIyWlLk6GJQsqaUBKTNV-1" vertex="1">
                    <mxGeometry x="228.5" y="880" width="183" height="90" as="geometry"/>
                </mxCell>
                <mxCell id="ck-GFEVjmnhh8C61xfXQ-111" value="no" style="edgeStyle=orthogonalEdgeStyle;rounded=0;orthogonalLoop=1;jettySize=auto;html=1;exitX=0;exitY=0.5;exitDx=0;exitDy=0;fontSize=12;" parent="WIyWlLk6GJQsqaUBKTNV-1" edge="1">
                    <mxGeometry x="-0.8207" y="-10" relative="1" as="geometry">
                        <mxPoint x="320" y="1290" as="targetPoint"/>
                        <mxPoint x="522.5" y="1450" as="sourcePoint"/>
                        <Array as="points">
                            <mxPoint x="450" y="1450"/>
                            <mxPoint x="450" y="1290"/>
                            <mxPoint x="340" y="1290"/>
                        </Array>
                        <mxPoint as="offset"/>
                    </mxGeometry>
                </mxCell>
                <mxCell id="ck-GFEVjmnhh8C61xfXQ-113" value="yes" style="edgeStyle=orthogonalEdgeStyle;rounded=0;orthogonalLoop=1;jettySize=auto;html=1;exitX=1;exitY=0.5;exitDx=0;exitDy=0;fontSize=12;entryX=1;entryY=0.375;entryDx=0;entryDy=0;entryPerimeter=0;" parent="WIyWlLk6GJQsqaUBKTNV-1" target="ck-GFEVjmnhh8C61xfXQ-21" edge="1">
                    <mxGeometry x="-0.9108" y="20" relative="1" as="geometry">
                        <mxPoint x="820" y="960" as="targetPoint"/>
                        <mxPoint x="722.5" y="1450" as="sourcePoint"/>
                        <Array as="points">
                            <mxPoint x="870" y="1450"/>
                            <mxPoint x="870" y="330"/>
                        </Array>
                        <mxPoint as="offset"/>
                    </mxGeometry>
                </mxCell>
                <mxCell id="ck-GFEVjmnhh8C61xfXQ-106" value="플레이어가 살아있나요?" style="rhombus;whiteSpace=wrap;html=1;rounded=0;fontSize=12;" parent="WIyWlLk6GJQsqaUBKTNV-1" vertex="1">
                    <mxGeometry x="522.5" y="1390" width="200" height="120" as="geometry"/>
                </mxCell>
                <mxCell id="ck-GFEVjmnhh8C61xfXQ-112" value="점수 출력" style="rounded=0;whiteSpace=wrap;html=1;fontSize=12;fillColor=default;" parent="WIyWlLk6GJQsqaUBKTNV-1" vertex="1">
                    <mxGeometry x="260" y="1320" width="120" height="60" as="geometry"/>
                </mxCell>
                <mxCell id="ck-GFEVjmnhh8C61xfXQ-117" style="edgeStyle=orthogonalEdgeStyle;rounded=0;orthogonalLoop=1;jettySize=auto;html=1;exitX=0.5;exitY=1;exitDx=0;exitDy=0;fontSize=12;" parent="WIyWlLk6GJQsqaUBKTNV-1" source="ck-GFEVjmnhh8C61xfXQ-115" target="ck-GFEVjmnhh8C61xfXQ-21" edge="1">
                    <mxGeometry relative="1" as="geometry"/>
                </mxCell>
                <mxCell id="ck-GFEVjmnhh8C61xfXQ-115" value="총알 개수 선택" style="rounded=0;whiteSpace=wrap;html=1;fontSize=12;" parent="WIyWlLk6GJQsqaUBKTNV-1" vertex="1">
                    <mxGeometry x="215" y="150" width="210" height="100" as="geometry"/>
                </mxCell>
                <mxCell id="ck-GFEVjmnhh8C61xfXQ-119" style="edgeStyle=orthogonalEdgeStyle;rounded=0;orthogonalLoop=1;jettySize=auto;html=1;exitX=0.5;exitY=1;exitDx=0;exitDy=0;entryX=0.5;entryY=0;entryDx=0;entryDy=0;fontSize=12;" parent="WIyWlLk6GJQsqaUBKTNV-1" source="ck-GFEVjmnhh8C61xfXQ-118" target="ck-GFEVjmnhh8C61xfXQ-115" edge="1">
                    <mxGeometry relative="1" as="geometry"/>
                </mxCell>
                <mxCell id="ck-GFEVjmnhh8C61xfXQ-118" value="게임 시작" style="rounded=1;whiteSpace=wrap;html=1;fontSize=12;" parent="WIyWlLk6GJQsqaUBKTNV-1" vertex="1">
                    <mxGeometry x="260" y="20" width="120" height="60" as="geometry"/>
                </mxCell>
                <mxCell id="ck-GFEVjmnhh8C61xfXQ-124" style="edgeStyle=orthogonalEdgeStyle;rounded=0;orthogonalLoop=1;jettySize=auto;html=1;exitX=0.5;exitY=1;exitDx=0;exitDy=0;entryX=0.5;entryY=0;entryDx=0;entryDy=0;fontSize=12;" parent="WIyWlLk6GJQsqaUBKTNV-1" source="ck-GFEVjmnhh8C61xfXQ-122" edge="1">
                    <mxGeometry relative="1" as="geometry">
                        <mxPoint x="622.5" y="1390" as="targetPoint"/>
                    </mxGeometry>
                </mxCell>
                <mxCell id="ck-GFEVjmnhh8C61xfXQ-122" value="점수 획득" style="rounded=0;whiteSpace=wrap;html=1;fontSize=12;" parent="WIyWlLk6GJQsqaUBKTNV-1" vertex="1">
                    <mxGeometry x="535" y="1199" width="175" height="101" as="geometry"/>
                </mxCell>
                <mxCell id="ck-GFEVjmnhh8C61xfXQ-133" style="edgeStyle=orthogonalEdgeStyle;rounded=0;orthogonalLoop=1;jettySize=auto;html=1;exitX=0;exitY=0.5;exitDx=0;exitDy=0;fontSize=12;" parent="WIyWlLk6GJQsqaUBKTNV-1" source="ck-GFEVjmnhh8C61xfXQ-127" edge="1">
                    <mxGeometry relative="1" as="geometry">
                        <mxPoint x="460" y="510" as="targetPoint"/>
                        <Array as="points">
                            <mxPoint x="660" y="510"/>
                        </Array>
                    </mxGeometry>
                </mxCell>
                <mxCell id="ck-GFEVjmnhh8C61xfXQ-127" value="맵 밖으로 총알이 나가면 총알 소멸&amp;nbsp;" style="rounded=0;whiteSpace=wrap;html=1;fontSize=12;" parent="WIyWlLk6GJQsqaUBKTNV-1" vertex="1">
                    <mxGeometry x="660" y="485" width="120" height="60" as="geometry"/>
                </mxCell>
                <mxCell id="ck-GFEVjmnhh8C61xfXQ-137" style="edgeStyle=orthogonalEdgeStyle;rounded=0;orthogonalLoop=1;jettySize=auto;html=1;exitX=0.5;exitY=1;exitDx=0;exitDy=0;entryX=0.5;entryY=0;entryDx=0;entryDy=0;fontSize=16;" parent="WIyWlLk6GJQsqaUBKTNV-1" source="ck-GFEVjmnhh8C61xfXQ-135" target="ck-GFEVjmnhh8C61xfXQ-73" edge="1">
                    <mxGeometry relative="1" as="geometry"/>
                </mxCell>
                <mxCell id="ck-GFEVjmnhh8C61xfXQ-135" value="클릭 시 총알 발사" style="rounded=0;whiteSpace=wrap;html=1;fontSize=12;fillColor=default;" parent="WIyWlLk6GJQsqaUBKTNV-1" vertex="1">
                    <mxGeometry x="260" y="585" width="120" height="60" as="geometry"/>
                </mxCell>
            </root>
        </mxGraphModel>
    </diagram>
</mxfile>